<?xml version="1.0" standalone="no"?>
<!DOCTYPE svg PUBLIC "-//W3C//DTD SVG 20010904//EN"
 "http://www.w3.org/TR/2001/REC-SVG-20010904/DTD/svg10.dtd">
<svg version="1.0" xmlns="http://www.w3.org/2000/svg"
 width="288.000000pt" height="288.000000pt" viewBox="0 0 288.000000 288.000000"
 preserveAspectRatio="xMidYMid meet">
<metadata>
Created by potrace 1.10, written by Peter Selinger 2001-2011
</metadata>
<g transform="translate(0.000000,288.000000) scale(0.100000,-0.100000)"
fill="#000000" stroke="none">
<path d="M1300 2657 c-36 -12 -87 -37 -113 -54 -56 -39 -58 -39 -82 -13 -9 10
-40 27 -68 36 -94 31 -211 -1 -269 -76 l-23 -29 -46 16 c-39 14 -53 15 -86 5
-72 -21 -123 -80 -123 -142 0 -20 5 -20 226 -20 l226 0 -7 -22 c-4 -13 -9 -35
-12 -50 -4 -22 -2 -26 13 -22 18 5 19 -1 16 -87 -2 -51 1 -95 6 -98 5 -3 12
-18 16 -34 5 -22 2 -29 -16 -36 -29 -11 -64 -49 -73 -78 -4 -14 -14 -23 -26
-23 -23 0 -25 -33 -4 -70 9 -17 12 -43 8 -86 -7 -81 15 -129 71 -155 23 -10
42 -23 42 -29 1 -5 2 -21 3 -35 0 -14 7 -25 15 -25 8 0 16 -10 20 -23 3 -13
16 -39 29 -58 17 -25 23 -45 19 -67 -3 -21 0 -32 7 -32 13 0 10 -39 -14 -165
-8 -38 -16 -89 -20 -112 -6 -39 -9 -42 -46 -48 l-39 -7 0 -116 c0 -99 -7 -160
-35 -307 -4 -19 -11 -20 -167 -19 l-163 2 -15 83 c-13 66 -20 84 -37 92 -12 5
-29 7 -37 4 -24 -9 -19 -46 7 -57 12 -5 17 -9 11 -9 -16 -1 -37 -90 -25 -104
7 -9 -53 -11 -240 -9 -225 3 -249 2 -249 -13 0 -15 24 -16 250 -13 l250 3 0
-22 c0 -26 -3 -27 -29 -11 -28 17 -53 3 -50 -29 2 -16 -7 -50 -19 -77 -26 -58
-26 -56 -7 -56 11 0 15 -12 15 -50 0 -50 0 -50 33 -50 l32 0 2 90 c1 50 8 100
15 113 12 21 12 20 19 -18 5 -22 8 -73 8 -112 1 -58 4 -73 16 -73 8 0 14 8 13
18 -4 47 3 162 10 162 4 0 23 -41 42 -90 31 -79 38 -90 59 -90 l25 0 -21 19
c-11 11 -23 39 -27 63 -4 23 -16 81 -27 127 -11 46 -19 84 -17 85 2 0 73 0
158 -2 l156 -3 -22 -124 -21 -124 91 -20 c137 -31 263 -43 448 -45 l168 -1 0
-117 c0 -72 4 -118 10 -118 9 0 18 228 11 290 -12 107 4 162 43 147 23 -9 40
-85 28 -122 -6 -16 -11 -94 -12 -172 -1 -123 1 -143 14 -143 14 0 16 19 16
124 l0 123 68 7 c67 7 219 39 228 49 3 2 -2 58 -10 123 -9 64 -15 119 -13 120
4 4 317 7 321 3 2 -2 6 -53 9 -113 6 -101 5 -108 -14 -113 -29 -8 -23 -23 10
-23 21 0 30 6 35 23 10 38 7 227 -4 227 -5 0 -10 19 -11 43 0 23 -4 51 -8 62
-11 27 -3 45 19 45 25 0 28 -7 35 -80 4 -44 2 -65 -6 -70 -9 -6 -3 -35 20
-111 17 -57 36 -105 41 -107 6 -2 10 -10 10 -18 0 -9 10 -14 28 -14 24 1 25 2
10 14 -11 8 -25 49 -38 107 -11 52 -22 103 -25 114 -4 20 0 20 245 17 225 -3
250 -1 250 13 0 15 -25 16 -250 13 l-250 -3 0 58 c0 63 -12 97 -36 97 -10 0
-13 7 -8 24 7 29 -8 40 -42 32 -23 -6 -24 -7 -8 -31 14 -22 15 -25 1 -25 -17
0 -87 -77 -87 -96 0 -7 18 -21 40 -31 22 -10 40 -20 40 -23 0 -3 -75 -4 -167
-3 l-168 3 -12 73 c-6 39 -12 138 -12 218 l-1 147 -44 6 -45 7 -6 67 c-3 37
-7 82 -10 99 l-4 33 231 0 230 0 -7 27 c-19 81 -81 133 -154 133 -25 -1 -57
-7 -71 -14 -23 -13 -27 -12 -57 24 -39 45 -106 80 -152 80 -26 0 -32 3 -27 16
15 39 18 64 7 64 -26 0 -10 40 22 53 38 17 62 41 76 80 6 15 17 27 25 27 10 0
19 19 27 58 6 31 18 66 25 77 8 11 14 27 14 37 0 11 8 18 20 18 43 0 10 88
-43 114 -29 14 -30 15 -33 107 -6 153 -11 179 -38 179 -17 0 -24 9 -33 43 -7
23 -23 59 -37 80 -33 48 -33 51 5 43 l30 -6 -33 39 c-64 74 -130 118 -225 150
-88 29 -224 29 -313 -2z m333 -26 c58 -23 177 -106 185 -129 3 -10 -76 -12
-357 -12 -217 1 -361 5 -361 10 0 12 92 85 134 107 17 9 56 25 86 35 78 26
232 20 313 -11z m-578 -30 c22 -10 46 -26 54 -35 13 -15 11 -20 -12 -44 -22
-21 -34 -26 -67 -23 -31 2 -40 -1 -40 -13 0 -8 -8 -31 -17 -51 l-17 -35 -223
0 c-248 0 -244 -1 -203 65 38 61 126 83 185 47 l30 -19 40 45 c21 25 57 53 80
63 52 24 138 24 190 0z m395 -146 c157 -8 302 -15 323 -15 37 0 39 -2 67 -62
l28 -63 -462 -5 c-253 -3 -462 -5 -464 -4 -6 2 29 86 52 123 l26 41 73 0 c39
0 200 -7 357 -15z m464 -181 c3 -9 6 -47 6 -85 l0 -69 -475 0 -475 0 0 65 c0
60 2 65 23 66 43 1 862 36 888 38 16 0 29 -5 33 -15z m-394 -194 c156 -6 313
-10 348 -10 57 0 63 -2 57 -17 -4 -10 -9 -42 -12 -70 l-6 -53 -76 0 c-59 0
-83 5 -106 20 -39 26 -101 26 -143 0 -18 -11 -41 -20 -52 -20 -18 0 -20 7 -20
70 0 40 -4 70 -10 70 -6 0 -10 -30 -10 -70 l0 -70 -105 0 c-87 0 -110 3 -137
20 -19 11 -51 20 -73 20 -22 0 -54 -9 -73 -20 -18 -11 -45 -20 -61 -20 -27 0
-28 2 -34 60 -4 33 -10 72 -13 86 l-6 25 123 -6 c68 -3 252 -10 409 -15z
m-527 -112 l6 -38 -50 0 c-29 0 -49 4 -49 11 0 18 70 83 79 73 5 -5 11 -26 14
-46z m1006 6 c30 -38 27 -44 -27 -44 l-49 0 4 33 c7 54 10 59 32 47 11 -5 29
-22 40 -36z m-799 -54 c0 -5 -14 -10 -31 -10 -17 0 -28 4 -24 10 3 6 17 10 31
10 13 0 24 -4 24 -10z m480 0 c0 -5 -14 -10 -31 -10 -17 0 -28 4 -24 10 3 6
17 10 31 10 13 0 24 -4 24 -10z m176 -42 c-3 -18 -8 -57 -12 -85 l-7 -53 -183
0 -184 0 0 81 0 81 48 -5 c26 -2 67 -12 92 -22 46 -18 46 -18 100 8 34 15 74
26 104 26 l48 1 -6 -32z m124 22 c0 -6 -7 -25 -16 -41 -8 -17 -18 -49 -22 -72
-7 -41 -8 -42 -51 -45 -39 -3 -42 -1 -37 16 6 19 26 129 26 145 0 4 23 7 50 7
28 0 50 -5 50 -10z m-530 -80 l0 -80 -224 0 -223 0 -7 54 c-3 30 -8 61 -12 69
-8 21 96 28 149 10 32 -11 46 -12 71 -2 17 7 74 15 126 19 52 4 101 7 108 8 9
2 12 -20 12 -78z m-480 28 c0 -18 4 -50 9 -71 l9 -38 -41 3 c-40 3 -41 4 -52
53 -7 28 -16 58 -20 68 -6 15 -1 17 44 17 51 0 51 0 51 -32z m-7 -170 c7 -50
5 -52 -23 -43 -19 6 -60 59 -60 78 0 4 17 7 39 7 38 0 38 -1 44 -42z m265 32
c59 0 82 -4 82 -12 0 -7 10 -14 23 -15 12 -1 37 -5 54 -9 25 -5 34 -2 39 10 5
13 24 16 114 16 59 0 141 -3 182 -6 l74 -7 -11 -66 -10 -66 -117 -3 c-113 -3
-120 -1 -176 27 -45 23 -62 27 -77 19 -13 -8 -24 -7 -37 1 -16 10 -29 7 -75
-19 -54 -29 -62 -30 -174 -30 l-117 0 -6 33 c-3 17 -8 56 -12 86 l-7 54 84 -6
c46 -4 121 -7 167 -7z m192 -9 c0 -16 -28 -20 -47 -6 -17 13 -16 14 15 15 17
0 32 -4 32 -9z m460 -18 c0 -14 -44 -53 -60 -53 -13 0 -16 7 -12 30 4 27 8 30
38 30 19 0 34 -3 34 -7z m-114 -216 c-14 -23 -38 -56 -53 -73 l-28 -31 -279 6
-280 6 -45 58 c-24 31 -42 59 -39 62 4 5 235 18 583 33 181 8 182 7 141 -61z
m151 -33 c23 -13 52 -39 64 -57 12 -17 24 -34 25 -36 2 -2 14 3 26 11 80 53
190 9 213 -85 l7 -27 -220 0 -220 0 -6 28 c-2 15 -7 44 -11 64 -3 22 -11 37
-18 35 -20 -3 -20 50 0 78 16 22 23 25 58 20 22 -3 59 -17 82 -31z m-704 -154
c36 -38 77 -75 91 -81 14 -7 26 -15 26 -18 0 -6 -242 -2 -248 4 -2 2 2 39 8
84 11 74 14 81 35 81 15 0 44 -24 88 -70z m335 51 c67 -1 122 -3 122 -6 0 -2
-20 -26 -45 -53 -119 -129 -272 -124 -390 14 -25 29 -45 54 -45 56 0 1 53 0
117 -4 65 -3 173 -7 241 -7z m240 -78 c6 -37 10 -68 9 -69 -5 -6 -257 -8 -257
-3 0 4 14 12 30 19 17 7 51 37 77 66 42 50 49 54 88 54 l42 0 11 -67z m16
-155 c3 -34 5 -63 3 -64 -2 -2 -50 1 -108 6 -134 12 -404 12 -538 0 -58 -5
-106 -8 -108 -6 -2 2 -1 22 3 44 l6 40 92 7 c71 5 422 24 617 34 25 1 26 -2
33 -61z m-119 -78 c77 -5 157 -12 178 -16 l37 -6 0 -99 0 -99 -465 0 -465 0 0
100 0 99 33 6 c119 22 473 30 682 15z m239 -447 c15 -109 29 -212 32 -229 l6
-30 -89 -17 c-141 -27 -193 -32 -193 -17 0 7 7 18 16 25 24 17 10 110 -21 140
-12 13 -21 33 -21 46 1 18 -5 25 -23 27 -27 4 -43 -15 -35 -40 3 -10 -2 -19
-15 -23 -37 -11 -59 -139 -26 -151 8 -4 15 -15 15 -25 0 -18 -10 -19 -173 -19
-95 0 -211 5 -257 10 -132 16 -250 42 -250 54 0 14 70 417 75 434 3 9 106 12
468 12 l464 0 27 -197z m346 55 c0 -32 0 -32 -16 -10 -15 22 -12 42 7 42 5 0
9 -15 9 -32z m-1715 -58 c7 -19 16 -51 18 -72 5 -30 2 -37 -14 -41 -30 -8 -47
26 -42 81 6 66 14 101 20 82 2 -8 10 -31 18 -50z m-110 -198 c-5 -14 -8 -14
-15 -2 -5 8 -4 22 3 34 10 19 11 20 15 3 2 -10 1 -26 -3 -35z"/>
<path d="M1081 2006 c-24 -13 -40 -26 -34 -29 6 -4 27 3 49 13 49 26 109 25
157 0 42 -23 47 -24 47 -10 0 18 -83 50 -130 49 -27 0 -62 -9 -89 -23z"/>
<path d="M1568 2009 c-21 -11 -38 -24 -38 -29 0 -14 5 -13 42 10 42 26 108 26
158 0 44 -23 50 -24 50 -11 0 18 -86 51 -131 51 -24 -1 -61 -10 -81 -21z"/>
<path d="M1370 1480 c0 -5 23 -10 50 -10 28 0 50 5 50 10 0 6 -22 10 -50 10
-27 0 -50 -4 -50 -10z"/>
<path d="M1762 890 c4 -55 12 -80 22 -69 3 2 2 32 -1 67 -7 80 -27 83 -21 2z"/>
<path d="M1781 708 c1 -75 46 -352 57 -356 9 -3 11 4 8 20 -6 25 -46 329 -46
347 0 6 -4 11 -10 11 -5 0 -10 -10 -9 -22z"/>
<path d="M2310 2308 c-42 -29 -67 -64 -75 -105 l-7 -33 226 0 226 0 0 24 c0
29 -40 73 -75 82 -15 4 -38 1 -52 -5 -22 -10 -28 -8 -52 15 -33 33 -61 44
-115 44 -28 0 -55 -8 -76 -22z m134 -2 c19 -8 44 -28 56 -44 20 -27 25 -29 37
-16 21 21 69 17 97 -8 56 -50 49 -53 -176 -53 -115 0 -208 4 -208 8 0 22 35
79 59 96 45 32 86 37 135 17z"/>
<path d="M385 1426 c-16 -7 -38 -23 -49 -34 -15 -17 -26 -20 -65 -15 -43 5
-51 2 -79 -23 -17 -16 -32 -40 -34 -54 l-3 -25 223 -3 222 -2 0 27 c0 46 -33
95 -80 120 -48 26 -91 29 -135 9z m132 -26 c33 -20 56 -50 68 -87 l6 -23 -210
0 c-116 0 -211 4 -211 9 0 18 41 59 66 65 15 4 37 1 55 -8 27 -13 30 -13 40 5
29 55 127 76 186 39z"/>
</g>
</svg>
